<?xml version="1.0" ?><!DOCTYPE svg  PUBLIC '-//W3C//DTD SVG 1.1//EN'
    'http://www.w3.org/Graphics/SVG/1.1/DTD/svg11.dtd'>
<svg enable-background="new 0 0 512 512" height="28px" id="Layer_1" version="1.1"
    viewBox="0 0 512 512" width="50px" xml:space="preserve" xmlns="http://www.w3.org/2000/svg"
    xmlns:xlink="http://www.w3.org/1999/xlink"><g><g><g><path d="M7.9,256C7.9,119,119,7.9,256,7.9C393,7.9,504.1,119,504.1,256c0,137-111.1,248.1-248.1,248.1     C119,504.1,7.9,393,7.9,256z" fill="#F3F2F2"/></g></g><g><g><polygon fill="#293688" points="191.6,303.6 210.6,191.5 241.4,191.5 222.4,303.6    "/></g>
    <g><path d="M331.8,194.4c-6.1-2.3-15.6-4.7-27.5-4.7c-30.4,0-51.8,15.2-52,37c-0.2,16.1,15.3,25.1,26.9,30.5     c12,5.5,16,9,15.9,13.9c-0.1,7.5-9.6,10.9-18.4,10.9c-12.3,0-18.8-1.7-28.9-5.9l-4-1.8l-4.3,25.1c7.2,3.1,20.5,5.8,34.2,6     c32.3,0,53.3-15,53.5-38.3c0.1-12.7-8.1-22.5-25.8-30.5c-10.7-5.2-17.3-8.6-17.3-13.9c0-4.7,5.6-9.6,17.6-9.6     c10.1-0.2,17.3,2,23,4.3l2.8,1.3L331.8,194.4L331.8,194.4z" fill="#293688"/></g>
    <g><path d="M384.2,191.5c-7.4,0-12.7,2.2-15.9,9.5l-45.5,102.5h32.5l6.3-17.2h38.9l3.6,17.2H433l-25.3-112.1H384.2z      M370.2,264c2.5-6.5,12.2-31.3,12.2-31.3c-0.2,0.3,2.5-6.5,4.1-10.7l2.1,9.7c0,0,5.9,26.8,7.1,32.4H370.2L370.2,264z" fill="#293688"/></g>
    <g><path d="M135.6,268.3l-2.7-15.4c-5.6-17.9-23-37.3-42.5-47l27.2,97.6h32.5l48.8-112.1h-32.5L135.6,268.3z" fill="#293688"/></g>
    <g><path d="M56.9,191.5v1.8c38.6,9.3,65.3,32.7,75.9,59.7l-11.1-51.9c-1.9-7.1-7.5-9.3-14.2-9.6H56.9z" fill="#F7981D"/></g></g><g><g><path d="M256,504.1c95.8,0,178.8-54.3,220.1-133.7H35.9C77.2,449.8,160.3,504.1,256,504.1z" fill="#F7981D"/></g>
    <g><path d="M256,7.9c-94.2,0-176.2,52.5-218.2,129.9h436.4C432.2,60.5,350.2,7.9,256,7.9z" fill="#293688"/></g></g></g></svg>